:SAMPLES-PER-SECOND 30
:FULLY-SPECIFIED
:DEGREES
791
root  -6.91922 39.2747 3.26231 -174.795 68.5634 -173.171
RightUpLeg  -9.32907 15.7003 1.66432
RightLeg  22.5255 -5.85137 -2.86949
RightFoot  -8.63282 -0.136656 3.43845
RightToes  -2.32832e-010 0 -3.6325e-017
Spine  10.5412 0.844686 -4.52665
Spine1  0.770161 -0.0383589 2.87332
HEad  -9.62004 -8.92076 3.6385
LeftShoulder1  1.8179 -3.96117 -17.7535
LeftArm  10.8131 33.6873 -53.4783
LeftForeArm  23.5557 -63.9936 -21.2906
LeftHand  -1.87438 -2.78206 26.4684
RightShoulder  0.781846 -0.0627925 16.1024
RightArm  7.04729 -18.8171 58.0322
RightForeArm  8.66095 48.2267 11.6365
RightHand  -1.93101 4.19833 -23.3876
LeftUpLeg  -11.0629 -0.985453 4.64548
LeftLeg  30.8073 2.47699 1.953
LeftFoot  -10.2453 0.194944 -14.2895
LeftToes  2.2737e-010 4.38529e-011 2.18788e-011
792
root  -7.1912 38.9882 3.45593 -174.579 67.7663 -173.063
RightUpLeg  -13.2779 14.213 1.43998
RightLeg  28.5733 -4.40369 -2.79144
RightFoot  -7.93451 -0.235482 5.77445
RightToes  -2.32832e-010 0 -3.6325e-017
Spine  12.0739 -0.274957 -11.4771
Spine1  0.295223 -2.94021 8.41075
HEad  -11.6009 -5.00918 5.87941
LeftShoulder1  1.78546 -3.70684 -18.1671
LeftArm  10.1734 25.2219 -58.6662
LeftForeArm  25.1249 -66.1213 -23.7164
LeftHand  -1.84111 -2.46849 27.0064
RightShoulder  0.893083 0.328878 16.7268
RightArm  10.6851 -22.1999 55.7501
RightForeArm  4.50176 37.4689 8.21472
RightHand  -2.0256 3.7303 -25.6474
LeftUpLeg  -9.97001 -2.90971 4.26798
LeftLeg  28.2534 5.26937 3.44347
LeftFoot  -15.2258 -0.338585 -12.3898
LeftToes  2.2737e-010 4.38529e-011 2.18788e-011
793
root  -7.58488 38.7717 3.69433 -177.51 65.8018 -175.829
RightUpLeg  -18.8096 11.263 0.118403
RightLeg  37.4054 -3.06199 -2.78166
RightFoot  -3.26557 -0.570109 7.7889
RightToes  -2.32832e-010 0 -3.6325e-017
Spine  14.8179 -1.55364 -17.8627
Spine1  0.45635 -6.07168 12.8352
HEad  -14.994 -1.28991 8.15075
LeftShoulder1  1.54817 -3.30785 -15.9638
LeftArm  10.3138 14.9097 -63.4986
LeftForeArm  30.4819 -70.1111 -29.5223
LeftHand  -1.78506 -2.41193 26.4017
RightShoulder  0.988899 0.652228 17.2618
RightArm  12.2138 -27.9726 52.1719
RightForeArm  4.49738 35.3238 7.6918
RightHand  -1.89759 3.17637 -25.5549
LeftUpLeg  -10.871 -5.38638 3.054
LeftLeg  28.7406 6.14864 4.0048
LeftFoot  -15.8849 -0.373575 -11.7445
LeftToes  2.2737e-010 4.38529e-011 2.18788e-011
794
root  -7.90589 38.6893 3.86672 178.747 64.5803 -178.54
RightUpLeg  -24.0894 8.37361 -0.964193
RightLeg  47.0629 -3.85616 -4.83113
RightFoot  2.1503 -0.868473 7.51456
RightToes  -2.32832e-010 0 -3.6325e-017
Spine  17.1455 -2.55961 -21.4573
Spine1  2.20555 -8.32089 13.3661
HEad  -18.3496 1.99081 10.3375
LeftShoulder1  1.25957 -3.30202 -11.3509
LeftArm  9.19182 4.78595 -67.2637
LeftForeArm  40.7035 -74.5446 -40.1112
LeftHand  -1.70573 -2.48256 25.0541
RightShoulder  0.989619 0.609282 17.5479
RightArm  13.0803 -35.1284 48.3428
RightForeArm  6.88821 39.6715 8.88346
RightHand  -1.69957 2.81847 -23.9429
LeftUpLeg  -10.5785 -6.33467 1.74079
LeftLeg  29.1671 5.72548 3.80429
LeftFoot  -14.5798 -0.232946 -11.292
LeftToes  2.2737e-010 4.38529e-011 2.18788e-011
795
root  -8.07907 38.799 3.89741 175.28 65.4547 179.314
RightUpLeg  -28.3932 7.19493 -1.50054
RightLeg  55.9313 -6.0693 -10.0003
RightFoot  3.49378 -0.695061 5.461
RightToes  -2.32832e-010 0 -3.6325e-017
Spine  18.3524 -3.27848 -22.7762
Spine1  3.60295 -9.31447 11.1942
HEad  -19.1383 4.97977 11.3966
LeftShoulder1  0.991621 -3.40886 -6.66577
LeftArm  5.87 -2.3838 -68.9598
LeftForeArm  58.1682 -78.1582 -58.4229
LeftHand  -1.56852 -2.28259 23.6839
RightShoulder  0.920544 0.407478 16.9784
RightArm  16.4986 -42.2822 44.2476
RightForeArm  10.2825 45.9537 10.8783
RightHand  -1.49432 2.4654 -22.0622
LeftUpLeg  -8.15966 -5.27975 0.509326
LeftLeg  27.3919 5.95678 3.81633
LeftFoot  -13.7697 -0.141931 -10.5653
LeftToes  2.2737e-010 4.38529e-011 2.18788e-011
796
root  -8.15647 39.0243 3.80463 172.056 67.74 176.514
RightUpLeg  -32.3555 7.34945 -2.17296
RightLeg  63.0088 -6.94795 -14.95
RightFoot  1.44546 -0.384137 3.52295
RightToes  -2.32832e-010 0 -3.6325e-017
Spine  18.9104 -3.96071 -23.329
Spine1  2.46346 -9.66994 9.24086
HEad  -17.0464 7.59056 10.9833
LeftShoulder1  0.78346 -2.96771 -4.15507
LeftArm  1.51957 -5.47479 -68.4382
LeftForeArm  84.2927 -79.8153 -85.669
LeftHand  -1.39139 -1.78616 22.4955
RightShoulder  0.905053 0.553065 15.6482
RightArm  22.48 -48.8829 38.7728
RightForeArm  14.5023 51.6713 13.1159
RightHand  -1.34316 2.2654 -20.3963
LeftUpLeg  -5.45506 -2.09921 -0.987369
LeftLeg  23.7939 5.87759 4.29845
LeftFoot  -13.0677 -0.0665958 -9.53104
LeftToes  2.2737e-010 4.38529e-011 2.18788e-011
797
root  -8.17296 39.2179 3.64608 168.652 70.16 172.563
RightUpLeg  -35.9065 7.48936 -3.26037
RightLeg  67.3204 -5.96449 -15.9374
RightFoot  0.243775 -0.295429 2.93462
RightToes  -2.32832e-010 0 -3.6325e-017
Spine  19.073 -4.72773 -23.5242
Spine1  -0.262059 -9.86566 7.87838
HEad  -14.423 9.51493 10.0811
LeftShoulder1  0.613751 -1.83256 -3.47133
LeftArm  -2.04265 -5.66619 -67.1809
LeftForeArm  107.488 -79.2291 -109.519
LeftHand  -1.25729 -1.41167 21.4741
RightShoulder  0.986785 1.12881 14.5032
RightArm  29.0273 -54.3457 32.2118
RightForeArm  18.7551 56.5217 15.5219
RightHand  -1.23695 2.24917 -18.861
LeftUpLeg  -3.81939 2.54826 -2.47606
LeftLeg  20.1401 4.22356 4.3625
LeftFoot  -11.7886 0.036911 -8.82596
LeftToes  2.2737e-010 4.38529e-011 2.18788e-011
798
root  -8.13078 39.3244 3.44877 164.956 72.5262 168.346
RightUpLeg  -37.8532 7.11 -4.07617
RightLeg  68.7478 -4.92049 -14.4807
RightFoot  0.555005 -0.342565 3.32515
RightToes  -2.32832e-010 0 -3.6325e-017
Spine  18.7619 -5.36211 -22.7867
Spine1  -2.19996 -9.72169 5.76177
HEad  -13.3415 10.7421 9.47304
LeftShoulder1  0.458641 -0.609196 -3.0694
LeftArm  -4.09098 -4.33148 -66.6073
LeftForeArm  120.165 -78.1335 -121.637
LeftHand  -1.20358 -1.35021 20.7601
RightShoulder  1.077 1.63864 14.0997
RightArm  33.5468 -57.7948 27.2613
RightForeArm  22.688 60.1236 17.7292
RightHand  -1.14597 2.19328 -17.6333
LeftUpLeg  -2.53068 5.20738 -3.06642
LeftLeg  17.5435 4.15488 3.42773
LeftFoot  -10.9156 0.0990533 -9.10416
LeftToes  2.2737e-010 4.38529e-011 2.18788e-011
799
root  -8.06684 39.3432 3.21508 160.75 74.8836 164.064
RightUpLeg  -37.7663 6.17028 -4.43083
RightLeg  67.8941 -5.07073 -14.192
RightFoot  -0.150963 -0.361143 3.66657
RightToes  -2.32832e-010 0 -3.6325e-017
Spine  18.2469 -5.61702 -21.4181
Spine1  -2.77982 -9.28706 3.49728
HEad  -13.9777 11.6812 8.63272
LeftShoulder1  0.402372 -0.100474 -3.09603
LeftArm  -4.96036 -1.66189 -66.2627
LeftForeArm  126.644 -77.5421 -126.508
LeftHand  -1.17426 -1.38649 20.1585
RightShoulder  1.0871 1.7078 14.0087
RightArm  34.0976 -58.9728 26.2997
RightForeArm  26.1965 62.1803 19.1327
RightHand  -1.09345 2.11611 -17.0114
LeftUpLeg  -1.02672 6.64633 -3.09411
LeftLeg  15.7579 5.34223 2.20104
LeftFoot  -11.185 0.0799492 -9.62356
LeftToes  2.2737e-010 4.38529e-011 2.18788e-011
800
root  -8.01972 39.2537 2.97406 155.303 76.5186 158.47
RightUpLeg  -36.5 4.35915 -5.18539
RightLeg  65.3644 -6.19842 -15.046
RightFoot  -1.45379 -0.286274 3.2004
RightToes  -2.32832e-010 0 -3.6325e-017
Spine  17.6901 -5.5168 -20.8655
Spine1  -2.58423 -8.9697 3.00457
HEad  -15.7714 12.4143 6.81696
LeftShoulder1  0.523712 -0.542373 -5.02762
LeftArm  -4.82865 2.21748 -64.8646
LeftForeArm  126.957 -77.7765 -125.57
LeftHand  -1.13585 -1.45248 19.3399
RightShoulder  1.03147 1.45798 13.9339
RightArm  30.4491 -58.2429 29.0672
RightForeArm  27.9642 63.2124 19.9286
RightHand  -1.08547 2.15561 -16.8039
LeftUpLeg  -0.390071 6.98888 -3.94174
LeftLeg  15.2573 7.02092 1.90702
LeftFoot  -11.9674 0.0191942 -9.60504
LeftToes  2.2737e-010 4.38529e-011 2.18788e-011
801
root  -7.95982 39.0836 2.76475 148.668 77.2321 151.471
RightUpLeg  -34.2004 1.97322 -6.58204
RightLeg  60.9308 -7.52977 -14.8348
RightFoot  -0.331191 -0.234339 2.40948
RightToes  -2.32832e-010 0 -3.6325e-017
Spine  16.6341 -5.07862 -21.4775
Spine1  -1.36609 -8.71601 4.22911
HEad  -18.1002 12.4015 4.38483
LeftShoulder1  0.805768 -1.42111 -8.90916
LeftArm  -3.4368 6.08089 -62.6699
LeftForeArm  109.753 -79.3617 -108.767
LeftHand  -1.17853 -1.87507 18.9211
RightShoulder  0.971365 1.08758 14.3528
RightArm  23.5131 -55.6039 34.3174
RightForeArm  26.3176 63.5275 20.4596
RightHand  -1.09216 2.19093 -16.8303
LeftUpLeg  -1.05541 6.10043 -5.83272
LeftLeg  16.5143 9.10629 2.82112
LeftFoot  -12.539 -0.0237401 -9.41805
LeftToes  2.2737e-010 4.38529e-011 2.18788e-011
